<svg width="82" height="82" viewBox="0 0 82 82" fill="none" xmlns="http://www.w3.org/2000/svg">
<path fill-rule="evenodd" clip-rule="evenodd" d="M59.2945 75.9603C52.3925 74.2311 38.2629 69.3559 25.4533 56.5465C12.6439 43.737 7.76878 29.6074 6.03951 22.7054C5.04573 18.739 6.83528 14.9114 9.86966 12.744L17.8245 7.06197C22.479 3.73738 28.9539 4.86553 32.2097 9.56836L37.2177 16.8023C39.3436 19.873 38.6104 24.0816 35.5712 26.2524L31.578 29.1048C32.1823 31.4165 34.062 36.164 39.949 42.0509C45.8359 47.9378 50.5834 49.8173 52.8951 50.4218L55.7473 46.4284C57.9183 43.3896 62.1269 42.656 65.1975 44.7819L72.4316 49.79C77.1343 53.0461 78.2625 59.5207 74.9377 64.1752L69.2558 72.1302C67.0883 75.1646 63.2609 76.9542 59.2945 75.9603ZM30.2852 51.7146C41.9341 63.3634 54.7889 67.787 60.955 69.332C61.8563 69.5575 62.9459 69.2073 63.6952 68.1583L69.3774 60.2033C70.4855 58.6522 70.1096 56.4939 68.5417 55.4084L61.308 50.4002L58.247 54.6858C56.9961 56.4371 54.6827 57.8106 51.989 57.2295C48.627 56.5041 42.4121 54.1777 35.1172 46.8828C27.8222 39.5878 25.4958 33.3729 24.7704 30.0109C24.1892 27.3172 25.5628 25.0038 27.3141 23.7529L31.5995 20.6919L26.5914 13.458C25.5061 11.8903 23.3478 11.5143 21.7963 12.6225L13.8415 18.3045C12.7924 19.0538 12.4422 20.1434 12.668 21.0447C14.2129 27.2109 18.6365 40.0658 30.2852 51.7146Z" fill="#3E3E3E"/>
</svg>
